<?xml version="1.0" standalone="no"?>
<!DOCTYPE svg PUBLIC "-//W3C//DTD SVG 1.1//EN" "http://www.w3.org/Graphics/SVG/1.1/DTD/svg11.dtd" >
<!--
2013-9-30: Created.
-->
<svg>
<metadata>
Created by iconfont
</metadata>
<defs>

<font id="iconfont" horiz-adv-x="1024" >
  <font-face
    font-family="iconfont"
    font-weight="500"
    font-stretch="normal"
    units-per-em="1024"
    ascent="896"
    descent="-128"
  />
    <missing-glyph />
    
    <glyph glyph-name="facebook" unicode="&#58912;" d="M777.05407879 888.03566532l0-161.97775072-96.32221762 0c-35.18414878 0-58.915373-7.35628459-71.19250935-22.06885263-12.27713634-14.71256804-18.41512229-36.79304559-18.41512228-66.24375691l0-115.9556374 179.7651259 0-23.91373624-181.61233381L591.12422954 340.17733159l0-465.67092198L403.38669684-125.49359039000001 403.38669684 340.17616943999997 246.94475793 340.17616943999997 246.94475793 521.7885032199999l156.44077562 0 0 133.7453369c0 76.07267335 21.27021725 135.07872128 63.81065064 177.01581836 42.53927123 41.93825924 99.18893635 62.90738999 169.9489965 62.90738999 60.13134506 0 106.76725741-2.44821991 139.90889923-7.34349641L777.05407879 888.03566532 777.05407879 888.03566532z"  horiz-adv-x="1024" />

    
    <glyph glyph-name="skype1" unicode="&#58880;" d="M778.61949359 279.34325717q0 32.92039678-12.83976134 60.24305863t-31.93174782 45.09990657-48.06354887 32.26244977-54.31807858 22.38517844-57.60896599 15.14315206l-68.47373395 15.80109912q-19.75223809 4.609086-28.96925781 6.913629t-23.04427776 7.57157606-19.75223808 10.53406603-10.86361573 13.82725801-4.93748337 19.75108582q0 50.69764151 94.80889914 50.69764152 28.31131079 0 50.69648923-7.90112569t35.55448944-18.76474138 25.01811885-22.05562883 26.33631744-19.09313876 31.60335045-7.90227798q30.94425117 0 49.70899257 21.06928442t18.76474141 50.69648923q0 36.21243648-36.87038352 65.51124394t-93.49300505 44.44195953-119.82817023 15.14315208q-44.77150918 0-86.90892571-10.20566871t-78.6782504-30.94425116-58.59761493-57.28056859-22.05678107-84.6043827q0-40.16242317 12.51021169-70.12032996t36.8703835-49.70899256 52.67033032-31.93174786 67.81578694-21.39768176l96.12709774-23.70222477q59.25556197-14.48520503 73.73961472-23.70222478 21.06928442-13.16815874 21.06928439-39.50447617 0-25.67721814-26.33631744-42.46696617t-69.13168098-16.78859578q-33.57719155 0-60.24305865 10.53406607t-42.79536354 25.34766848-29.95790677 29.62835712-30.28630412 25.34882075-35.55333718 10.53406606q-32.92039678 0-49.70899257-19.75223807t-16.78859576-49.3794429q0-60.57260827 80.32369407-103.69752151t191.59394387-43.12606546q48.06354887 0 92.17595874 12.18066201t80.65324374 35.22493982 58.26921756 61.56010495 21.72723141 86.57937606zM1017.61673478 136.47080919999996q0-104.68617045-74.07031667-178.75533483t-178.7553348-74.07031663q-85.59072713 0-154.06446108 52.67263486-50.69764151-10.53521835-98.76119038-10.53521834-94.14979983 0-180.07122885 36.54198611t-148.13948103 98.75888586-98.76003809 148.14063326-36.54083387 180.07122888q0 48.06354887 10.53406607 98.76003811-52.67148261 68.47373395-52.67148259 154.06561333 0 104.68501817 74.06916437 178.75533483t178.75533479 74.06916436q85.59187939 0 154.06561339-52.67148258 50.69648923 10.53406606 98.76003809 10.53406607 94.15095209 0 180.07238114-36.54083384t148.13948101-98.76003812 98.76003811-148.13948103 36.54083386-180.07238113q0-48.06239659-10.53406607-98.76003812 52.67033032-68.4725817 52.67033032-154.06446105z"  horiz-adv-x="1024" />

    
    <glyph glyph-name="pinterest" unicode="&#59563;" d="M121.58087 530.067087c0-102.025905 38.769844-190.448356 121.750913-223.776818a20.405181 20.405181 0 0 1 30.607772 14.283627c2.720691 10.202591 9.182331 36.389239 12.243109 46.931916a28.227167 28.227167 0 0 1-8.502159 34.008635 167.662571 167.662571 0 0 0-39.10993 114.949186 279.891066 279.891066 0 0 0 293.154433 280.571239c159.840585 0 247.582863-96.244437 247.582863-224.456991 0-170.043175-75.839256-311.519097-188.747924-311.519097a91.143142 91.143142 0 0 0-93.863833 112.908669c17.68449 74.138824 52.373298 154.399203 52.373298 207.79276a78.900033 78.900033 0 0 1-81.280638 87.062105c-63.596147 0-114.949186-64.956493-114.949186-151.678512a222.416473 222.416473 0 0 1 19.044836-92.843574l-76.179343-319.341082a646.164065 646.164065 0 0 1-1.700431-222.756559 7.821986 7.821986 0 0 1 14.283626-3.400864 624.058452 624.058452 0 0 1 107.467287 191.808701c7.4819 26.186649 41.830621 161.20093 41.830621 161.20093a170.043175 170.043175 0 0 1 145.216871-73.118565c191.468615 0 321.041514 171.743607 321.041515 401.64198 0 173.784125-149.637994 335.665227-376.815676 335.665227-282.611757 0-425.448024-199.630687-425.448024-365.932913z"  horiz-adv-x="1024" />

    
    <glyph glyph-name="linkedin" unicode="&#58952;" d="M225.87593527-96.90335764999998H25.72342053V542.5100452500001h200.15251474z m-104.77782653 720.011731a110.1510484 110.1510484 0 0 0-119.55418665 110.15104838 111.49435385 111.49435385 0 0 0 122.24079758 111.49435387 111.49435385 111.49435385 0 1 0 0-221.64540225z m904.04458012-718.66842552h-227.01862413V234.89309303000005c0 85.97154998-34.92594215 145.07699055-112.83765933 145.07699055a114.18096478 114.18096478 0 0 1-107.46443747-77.91171713 147.76360148 147.76360148 0 0 1 0-52.38891327v-345.22950535H346.77342738V543.8533507h224.33201324v-100.74791008a204.18243117 204.18243117 0 0 0 198.80920928 106.121132c142.39037964 0 253.88473348-91.34477185 253.8847335-290.15398116z"  horiz-adv-x="1024" />

    
    <glyph glyph-name="twitter" unicode="&#58887;" d="M1022.037333 701.056a426.666667 426.666667 0 0 0-120.533333-33.066667 211.541333 211.541333 0 0 1 92.288 116.181334c-40.576-23.68-85.546667-40.917333-133.418667-50.517334a209.92 209.92 0 0 1-357.717333-191.232C328.149333 550.656 173.482667 634.4533329999999 69.973333 761.130667a205.738667 205.738667 0 0 1-28.416-105.6c0-72.96 37.12-137.088 93.354667-174.762667a209.237333 209.237333 0 0 0-95.061333 26.282667v-2.602667a210.048 210.048 0 0 1 168.362666-205.952 213.162667 213.162667 0 0 0-94.378666-3.626667 210.645333 210.645333 0 0 1 196.437333-145.792 421.034667 421.034667 0 0 0-260.352-89.813333c-16.64 0-33.237333 0.981333-49.92 2.858667a597.12 597.12 0 0 1 322.432-94.250667c386.304 0 597.290667 319.829333 597.290667 596.736 0 8.917333 0 17.92-0.64 26.88a423.936 423.936 0 0 1 104.96 108.714667l-2.005334 0.853333z"  horiz-adv-x="1024" />

    
    <glyph glyph-name="whatsapp1" unicode="&#58907;" d="M2.283-128l72.021 262.933A506.39 506.39 0 0 0 6.549 388.608C6.656 668.395 234.368 896 514.133 896c135.787-0.064 263.211-52.907 359.04-148.8a504.277 504.277 0 0 0 148.544-358.997c-0.128-279.766-227.84-507.414-507.584-507.414h-0.213c-84.95 0.043-168.427 21.334-242.56 61.76L2.283-128zM387.264 600.7470000000001c-10.283 24.704-20.736 21.354-28.523 21.76-7.402 0.362-15.85 0.426-24.32 0.426s-22.186-3.157-33.813-15.85c-11.627-12.694-44.373-43.371-44.373-105.771 0-62.421 45.44-122.71 51.776-131.157 6.336-8.47 89.429-136.534 216.661-191.446 30.25-13.056 53.867-20.864 72.299-26.709 30.378-9.643 58.026-8.299 79.872-5.035 24.362 3.648 75.029 30.678 85.61 60.288 10.56 29.632 10.56 55.019 7.403 60.31-3.179 5.269-11.627 8.448-24.32 14.805-12.672 6.336-75.03 37.013-86.656 41.237-11.627 4.246-20.075 6.358-28.544-6.336-8.448-12.693-32.747-41.258-40.15-49.706-7.402-8.47-14.805-9.536-27.477-3.2-12.693 6.357-53.546 19.754-101.973 62.933-37.717 33.621-63.168 75.157-70.57 87.85-7.403 12.694-0.79 19.542 5.546 25.878 5.717 5.675 12.693 14.805 19.03 22.187 6.357 7.424 8.469 12.714 12.693 21.162 4.224 8.47 2.112 15.872-1.067 22.23-3.157 6.336-28.523 68.736-39.104 94.122z"  horiz-adv-x="1024" />

    
    <glyph glyph-name="wechat1" unicode="&#58903;" d="M1254.584838 226.42599299999995c0 171.436823-174.67148 310.98917-369.675091 310.989169-207.942238 0-369.67509-138.628159-369.67509-310.989169s163.581227-311.451264 369.67509-311.451264a568.375451 568.375451 0 0 1 131.696751 21.718412l119.682311-64.693141-32.808665 107.205776c87.33574 64.693141 152.953069 150.642599 152.953069 247.220217z m-491.66787 53.602888a46.209386 46.209386 0 0 0-43.436824 42.974729 46.209386 46.209386 0 0 0 43.436824 42.512635 49.906137 49.906137 0 0 0 54.989169-42.512635 49.906137 49.906137 0 0 0-54.989169-42.974729z m240.750902 0a46.209386 46.209386 0 0 0-43.898917 42.974729 46.209386 46.209386 0 0 0 43.898917 42.512635 49.444043 49.444043 0 0 0 54.527076-42.512635 49.906137 49.906137 0 0 0-54.527076-42.974729z m0 0M853.025271 583.624549h42.974729C857.646209 761.99278 665.415162 896 445.920578 896 201.01083 896 0 728.259928 0 514.772563c0-123.379061 66.541516-224.577617 178.368231-303.133574l-46.209386-134.931408L290.194946 156.64981899999998a758.758123 758.758123 0 0 1 155.725632-22.642599c13.862816 0 27.725632 0 41.588447 2.31047a323.465704 323.465704 0 0 0-13.862816 92.418772 366.440433 366.440433 0 0 0 379.379062 354.425993z m-239.826715 121.530686a52.6787 52.6787 0 0 0 55.451263-55.913358 52.6787 52.6787 0 0 0-55.451263-55.913357 62.844765 62.844765 0 0 0-67.465704 55.913357 63.306859 63.306859 0 0 0 67.465704 55.913358zM300.823105 593.32852a62.382671 62.382671 0 0 0-67.00361 55.913357 62.382671 62.382671 0 0 0 67.00361 55.913358 52.6787 52.6787 0 0 0 55.913357-55.913358 52.6787 52.6787 0 0 0-55.913357-55.913357z m0 0"  horiz-adv-x="1256" />

    
    <glyph glyph-name="email" unicode="&#58986;" d="M58.50738811 881.9925693h1319.9731284c-223.33049915-226.21327781-445.30439818-451.2395294-667.95659728-676.60493099-217.39536908 225.53497662-434.11243698 450.39165318-652.01653112 676.60493099zM51.72438184-100.35639421999997c129.04670451 161.4355619 257.07595893 321.51452368 386.80096351 483.62838678 2.20447746-3.22192869 3.39150371-5.93513119 5.25683113-7.80045864 81.56565715-84.6180097 163.13131433-169.23602053 244.86654651-253.85403024 10.344085-10.68323615 31.54098118-10.17450999 42.90251739 1.35660127 43.75039361 44.2591198 87.33121335 88.51823959 130.91203196 132.77735938 43.24166856 43.91996862 86.48333714 87.8399384 129.5554307 131.75990702 1.52617626 1.52617626 2.88277753 3.56107871 4.91767997 6.10470621 131.420757-165.16621564 261.8240639-328.97583115 393.24481976-493.97247178H51.72438184zM1436.81437503-43.88786312000002c-130.40330576 163.80961438-259.45001142 325.75390246-388.83586593 488.20691672 129.55543069 130.74245693 258.6021352 261.14576269 388.83586593 392.73609472v-880.94301144zM6.78696199 828.74596577c127.85967827-132.60778323 254.19318028-263.68939019 381.03540731-395.11014834-126.67265203-158.89193441-253.00615404-317.61429494-381.03540731-478.20198062v873.31212896z"  horiz-adv-x="1440" />

    
    <glyph glyph-name="Youtube" unicode="&#58967;" d="M491.64288 512.7176799900001a69.31456 69.31456 0 0 1 59.60192 28.672 110.78143999 110.78143999 0 0 1 15.69792 66.37568V706.14615999a108.73856 108.73856 0 0 1-15.69792 65.7664 69.7088 69.7088 0 0 1-59.60192 28.672 68.74112 68.74112 0 0 1-58.9568-28.672 109.02528 109.02528 0 0 1-15.7696-65.83808v-98.34496a111.96416 111.96416 0 0 1 15.7696-66.37568 68.74112 68.74112 0 0 1 58.9568-28.63616z m-24.192 203.49952c0 25.84064 7.88479999 38.74304 24.192 38.74304 16.88064 0 24.192-12.9024 24.192-38.74304v-118.05696c0-25.91232-7.168-39.424-24.192-39.424-16.30720001 0-24.192 13.51168-24.192 39.424z m145.61792-182.78400001a142.24896 142.24896 0 0 0-4.44415999 42.14784001V797.17975999h51.14367999v-206.29503999a119.23968 119.23968 0 0 1 0.60928-19.74784001c1.11103999-7.88479999 5.05344-12.32896 11.79136001-12.32896 10.07104 0 20.75136 7.88479999 32.00511999 24.192V797.17975999h51.14368v-280.55552h-51.14368v30.92992a80.53248 80.53248 0 0 0-57.95328-34.83648 31.75423999 31.75423999 0 0 0-33.11616001 20.7872z m194.53951999-340.15743999v-25.84064h-50.60607998v25.91232c0 25.30303999 8.45824 38.27712 25.30303999 38.27712s25.30303999-12.97408 25.30303999-38.27712zM257.75104 788.18391999c-12.32896 34.83648-24.69376001 70.28224-36.59264 105.11872H280.832l39.88992-147.87584 38.24128001 147.87584h57.34399999l-68.096-224.32256v-152.35584H292.1216V668.98007999a897.46944 897.46944 0 0 1-34.37056 119.20384z m647.66464-415.49312a105.728 105.728 0 0 1-89.9584 82.07360001 2885.94432 2885.94432 0 0 1-312.05888 11.25375998 2869.56544 2869.56544 0 0 1-311.48544-11.25375998 106.33728 106.33728 0 0 1-90.42432-82.07360001 918.07744 918.07744 0 0 1-14.62272-196.7616 884.1728 884.1728 0 0 1 14.62272-196.7616 104.50944 104.50944 0 0 1 89.9584-81.536 2754.55488 2754.55488 0 0 1 312.02304001-11.79136 2756.09599999 2756.09599999 0 0 1 312.05887999 11.79136 105.22624 105.22624 0 0 1 89.9584 81.536 920.65792 920.65792 0 0 1 14.62272 196.7616 885.24799999 885.24799999 0 0 1-14.6944 196.7616z m-580.608-56.77056H264.56064v-319.90784H208.32768001v319.90784H149.22752v52.864h175.40096v-52.864z m151.81824-319.90784h-50.176v30.35647999a81.7152 81.7152 0 0 0-57.344-34.29887999 30.82240001 30.82240001 0 0 0-32.57856 20.78720001 135.4752 135.4752 0 0 0-4.51584 41.00095999v219.80672h50.17600001v-204.68223999a137.4464 137.4464 0 0 1 0.53759999-19.74784001c1.18272-7.81312 5.08928-11.79136001 11.79136-11.79136 10.17856001 0 20.85888 7.81312 32.0768 23.58272V273.59319999h50.176v-277.5808z m191.17056 83.22048a199.41376 199.41376 0 0 0-5.08928-56.19712 39.424 39.424 0 0 0-39.92576001-30.92992 69.38624 69.38624 0 0 0-52.32639999 30.92992v-27.02336h-49.96096v372.736h49.96096v-121.856a68.096 68.096 0 0 0 52.32639999 30.35648 39.424 39.424 0 0 0 39.92576001-31.46752 192.8192 192.8192 0 0 0 5.08928-55.65952v-110.7456z m189.952 46.09024h-100.63872v-48.88576c0-25.91232 8.45824-38.74304 25.91232-38.74303999a21.504 21.504 0 0 1 22.50752 20.21375999 303.744 303.744 0 0 1 1.11103999 34.29888001h51.14368001v-7.34720001a218.91072 218.91072 0 0 0-1.11103999-32.57856 66.6624 66.6624 0 0 0-11.79136001-30.35648 69.7088 69.7088 0 0 0-60.67712-29.81888 71.39328 71.39328 0 0 0-60.74879999 28.672 105.94303999 105.94303999 0 0 0-16.30720001 65.26463999V183.27639998999996a107.52 107.52 0 0 0 15.7696 65.26464 76.84096 76.84096 0 0 0 119.77728 0 111.10399999 111.10399999 0 0 0 15.23199999-65.26464v-57.95328z m-240.12800001 68.6336v-118.6304c0-25.30303999-7.3472-37.632-21.93408-37.63199999a36.12672 36.12672 0 0 0-25.37471999 12.32895999v169.1648a35.84 35.84 0 0 0 25.37471999 12.40064c14.58688 0 21.93408-12.9024 21.93408-37.632z"  horiz-adv-x="1024" />

    
    <glyph glyph-name="left2" unicode="&#59152;" d="M1016.993 384c0-278.9-226.092-504.993-504.993-504.993S7.007 105.099 7.007 384 233.099 888.993 512 888.993 1016.993 662.901 1016.993 384zM783.92 275.233V492.767H512V655.92L240.081 384 512 112.081v163.15h271.919z"  horiz-adv-x="1024" />

    
    <glyph glyph-name="right2" unicode="&#59153;" d="M7.007 384C7.007 662.9 233.099 888.993 512 888.993S1016.993 662.901 1016.993 384 790.901-120.993 512-120.993 7.007 105.099 7.007 384zM240.08 492.767v-217.534H512V112.08L783.919 384 512 655.919v-163.15H240.081z"  horiz-adv-x="1024" />

    
    <glyph glyph-name="left7" unicode="&#59172;" d="M248.686 384L724.114 896l51.2-58.514L358.4 384l416.914-453.486-51.2-58.514z"  horiz-adv-x="1024" />

    
    <glyph glyph-name="right7" unicode="&#59173;" d="M775.314 384l-475.428-512-51.2 58.514L665.6 384 248.686 837.486 299.886 896z"  horiz-adv-x="1024" />

    
    <glyph glyph-name="up10" unicode="&#59182;" d="M510.85 496.913l383.663-376.697c28.372-27.861 74.317-27.861 102.625 0 28.308 27.797 28.308 72.911 0 100.644l-434.72 426.924c-14.25 13.994-32.91 20.896-51.568 20.832-18.66 0.064-37.255-6.838-51.505-20.832L24.625 220.86c-28.308-27.797-28.308-72.911 0-100.644 28.309-27.861 74.254-27.861 102.498 0L510.85 496.913z"  horiz-adv-x="1024" />

    
    <glyph glyph-name="bottom10" unicode="&#59183;" d="M513.15 271.087L129.487 647.784c-28.372 27.861-74.317 27.861-102.625 0-28.308-27.797-28.308-72.911 0-100.644l434.72-426.924c14.25-13.994 32.91-20.896 51.568-20.832 18.66-0.064 37.255 6.838 51.505 20.832l434.72 426.924c28.308 27.797 28.308 72.911 0 100.644-28.309 27.861-74.254 27.861-102.498 0L513.15 271.087z"  horiz-adv-x="1024" />

    
    <glyph glyph-name="left10" unicode="&#59184;" d="M399.087 382.85l376.697 383.663c27.861 28.372 27.861 74.317 0 102.625-27.797 28.308-72.911 28.308-100.644 0l-426.924-434.72c-13.994-14.25-20.896-32.91-20.832-51.568-0.064-18.66 6.838-37.255 20.832-51.505l426.924-434.72c27.797-28.308 72.911-28.308 100.644 0 27.861 28.309 27.861 74.254 0 102.498L399.087 382.85z"  horiz-adv-x="1024" />

    
    <glyph glyph-name="right10" unicode="&#59185;" d="M624.913 385.15L248.216 1.487c-27.861-28.372-27.861-74.317 0-102.625 27.797-28.308 72.911-28.308 100.644 0l426.924 434.72c13.994 14.25 20.896 32.91 20.832 51.568 0.064 18.66-6.838 37.255-20.832 51.505L348.86 871.375c-27.797 28.308-72.911 28.308-100.644 0-27.861-28.309-27.861-74.254 0-102.498L624.913 385.15z"  horiz-adv-x="1024" />

    
    <glyph glyph-name="left14" unicode="&#59200;" d="M1024 332.8H195.123L583.63-55.808l-71.68-71.68L0.666 384 511.949 895.488l71.68-71.68L195.123 435.2H1024v-102.4z"  horiz-adv-x="1024" />

    
    <glyph glyph-name="right14" unicode="&#59201;" d="M0 435.2h828.877L440.37 823.808 512.05 895.488 1023.334 384l-511.283-511.488-71.68 71.68L828.877 332.8H0V435.2z"  horiz-adv-x="1024" />

    
    <glyph glyph-name="up16" unicode="&#59206;" d="M516.65 397.984l-346.015-344L12.619 220l494.016 496 508-506.016-156-158.016z"  horiz-adv-x="1024" />

    
    <glyph glyph-name="bottom16" unicode="&#59207;" d="M507.35 370.016l346.015 344L1011.381 548 517.365 52l-508 506.016 156 158.016z"  horiz-adv-x="1024" />

    
    <glyph glyph-name="left16" unicode="&#59208;" d="M498.016 388.65l344-346.015L676-115.381 180 378.635l506.016 508 158.016-156z"  horiz-adv-x="1024" />

    
    <glyph glyph-name="right16" unicode="&#59209;" d="M525.984 384.683l-344 346.016L348 888.715l496-494.016-506.016-508-158.016 156z"  horiz-adv-x="1024" />

    
    <glyph glyph-name="left21" unicode="&#59254;" d="M1015.848 384c0-278.262-225.586-503.848-503.848-503.848S8.152 105.738 8.152 384 233.738 887.848 512 887.848 1015.848 662.262 1015.848 384z m-62.98 0c0 243.485-197.383 440.867-440.868 440.867S71.133 627.485 71.133 384 268.515-56.867 512-56.867 952.867 140.515 952.867 384z m-713.782 0l482.847 230.934-104.96-229.732 104.96-232.136L239.086 384z"  horiz-adv-x="1024" />

    
    <glyph glyph-name="right21" unicode="&#59256;" d="M8.152 384C8.152 662.262 233.738 887.848 512 887.848S1015.848 662.262 1015.848 384 790.262-119.848 512-119.848 8.152 105.738 8.152 384z m62.98 0c0-243.485 197.383-440.867 440.868-440.867S952.867 140.515 952.867 384 755.485 824.867 512 824.867 71.133 627.485 71.133 384z m713.782 0L302.067 153.066l104.96 229.732-104.96 232.136L784.914 384z"  horiz-adv-x="1024" />

    
    <glyph glyph-name="instagram" unicode="&#59293;" d="M899.465825 896H131.46558C59.178411 896 3.466682 840.28827 3.466682 767.999143v-767.999265c0-72.255832 55.71173-127.999878 127.999877-127.999878H899.466804c72.255832 0 127.999878 55.744046 127.999878 127.999878V767.999143c0 72.288148-55.744046 128.000857-127.999878 128.000857zM516.201638 585.151269c113.568101 0 205.599687-89.183815 205.599687-199.231374 0-109.983905-92.031586-199.232352-205.599687-199.232352-113.472131 0-205.536033 89.248448-205.536034 199.232352C310.697921 495.967454 402.761823 585.151269 516.201638 585.151269z m383.264187-553.151177c0-22.432564-9.599966-32.000214-32.000214-32.000214h-704.000796c-22.366952 0-31.999235 9.56765-31.999235 31.999235V479.999174l79.775789-17.343202c-8.543314-27.841175-13.2155-57.28055-13.2155-87.84023 0-170.17588 142.527624-308.287892 318.175769-308.287892 175.743136 0 318.208085 138.079695 318.208085 308.287892 0 30.559681-4.639869 60.000034-13.184162 87.84023l78.240264 17.343202V32.000092z m0 575.999939c0-17.695745-14.304469-32.000214-32.000214-32.000215H739.465733c-17.695745 0-32.000214 14.30349-32.000214 32.000215V735.999908c0 17.695745 14.304469 31.999235 32.000214 31.999235h127.999878c17.695745 0 32.000214-14.30349 32.000214-31.999235v-127.999877z"  horiz-adv-x="1049" />

    
    <glyph glyph-name="search" unicode="&#59310;" d="M414.47346252 73.10626954999998c-55.10838658 0-108.58186122 10.79914142-158.93536023 32.09437287-48.62241577 20.56388232-92.28306384 49.9934158-129.76862042 87.47673581s-66.91844484 81.14284982-87.48232716 129.76414732c-21.29634972 50.35238074-32.09437288 103.8247371-32.09437285 158.93088715 0 55.11397795 10.79802315 108.58968912 32.09437285 158.94318813 20.56276406 48.62241577 49.99788889 92.27970903 87.48344544 129.76414731C163.25392016 807.55635853 206.91568652 836.98701028 255.53922056 857.54865607c50.35238074 21.29187663 103.82697364 32.08766325 158.93424196 32.08766323 55.10838658 0 108.58409776-10.79578662 158.93647851-32.08766323 48.62353403-20.5605275 92.28641866-49.99229753 129.76973866-87.47114447 37.48443828-37.48443828 66.91956311-81.14173155 87.48232718-129.76414732 21.29523144-50.35349902 32.09437288-103.82921019 32.09437286-158.94318812 0-55.10615004-10.79914142-108.57850641-32.09660942-158.93200543-20.56276406-48.61906096-49.99565235-92.27970903-87.48009062-129.76302904S622.03235679 125.76116993999995 573.40994103 105.19840588c-50.35349902-21.29523144-103.82809192-32.09213633-158.93759678-32.09213633z m0 757.02574053c-192.31462629 0-348.77525317-156.45279899-348.77525318-348.76071564s156.46062687-348.75959738 348.77525318-348.75959739 348.77525317 156.45503553 348.77525316 348.75959739S606.79032534 830.13201008 414.47346252 830.13201008z m504.73713127-946.3009067c-24.73838734 0-47.97829177 9.57463486-65.46469277 26.96821938L677.65850278 81.49665560000005l41.41963333 42.7246554L895.63968119-46.94010423999998c6.27014455-6.26902628 14.64040173-9.72112834 23.5709126-9.72112834 8.92715604 0 17.29405841 3.45322034 23.56196642 9.71889181 6.28132727 6.28691861 9.74796684 14.6795412 9.74796684 23.62123477 0 8.92491951-3.45769341 17.29182188-9.73231106 23.55972988l-0.33771778 0.34330914-170.81139648 176.19810708 42.72689195 41.41516024L985.02754185 42.150296379999986c17.41259513-17.48751926 27.00064923-40.7307785 27.00064924-65.47475719 0-24.82002111-9.6462042-48.14603239-27.15944368-65.68275558-17.52218566-17.51771257-40.83365942-27.16056196-65.65815362-27.16056196z m-681.7683501 420.44746732c-47.34758702 47.32633987-73.41671664 110.24472995-73.40665222 177.15758343 0.00894616 66.89384289 26.07695753 129.8032868 73.39994259 177.14304592l42.08612276-42.06934868c-74.4846653-74.50926724-74.4880201-195.69739556-0.0078279-270.14851273l-42.07158523-42.08276794z"  horiz-adv-x="1024" />

    
    <glyph glyph-name="search2" unicode="&#59312;" d="M468.14876115-21.15165238999998a466.21989 466.21989 0 1 0 343.77349401 151.90910484 29.58199107 29.58199107 0 1 0-43.62214763 39.95421929 404.83108141 404.83108141 0 1 1-150.76740357-104.26011721 29.61181162 29.61181162 0 0 0 21.73705492-55.07537098 462.22180552 462.22180552 0 0 0-171.12099773-32.52783594zM1052.33663871-110.16920567a29.49146438 29.49146438 0 0 0-19.51116346 7.36567723L773.68271781 125.67624278999995a29.61181162 29.61181162 0 0 0 39.08196804 44.49333384l259.14488748-228.47977123A29.61181162 29.61181162 0 0 0 1052.33663871-110.16920567zM741.33380519 235.55753473000004a29.58199107 29.58199107 0 0 0-24.68183479 45.84590904 287.8546273 287.8546273 0 0 1-82.22272669 397.55593088 29.58199107 29.58199107 0 0 0 32.43730927 49.51383737 347.22948338 347.22948338 0 0 0 99.20872811-479.56778364 29.52234996 29.52234996 0 0 0-24.7414759-13.28825254z"  horiz-adv-x="1082" />

    
    <glyph glyph-name="search3" unicode="&#59313;" d="M510.464 894.31381333c-281.45095111 0-509.61635555-228.16426667-509.61635555-509.62204444S229.01191111-124.93141333000005 510.46286222-124.93141333000005c281.46005333 0 509.61863111 228.16881778 509.61863111 509.62545778S791.92405333 894.31495111 510.464 894.31495111z m209.05301333-791.12760888c-6.90972445-5.19168-15.03687111-7.93372445-23.50876444-7.93372445-5.75715555 0-11.56892445 1.33461333-16.80725334 3.85706667-6.50808889 3.12547555-12.11733333 8.02360889-16.21219555 14.15850666l-90.44650667 133.93464889c-27.23157333-13.4656-57.56359111-20.992-89.54766222-20.992-84.72576 0-157.91672889 52.73031111-192.35612444 129.13208889-13.98556445 30.5152-21.13194667 63.77016889-20.98744889 97.68277334-0.00113778 0.32995555-0.01137778 0.65877333-0.01137778 0.98986666 0 125.81319111 95.52327111 227.80472889 213.35608889 227.80472889 78.91854222 0 147.82350222-45.75459555 184.73187556-113.77208889 22.63153778-40.71879111 32.44600889-88.52366222 27.74129777-136.56519111a241.79370667 241.79370667 0 0 0-3.57376-23.97639111c-8.19313778-42.17287111-27.30552889-80.07111111-54.03875555-110.1824l91.20085333-134.97912889c12.82275555-19.02250667 8.53902222-45.55548445-9.54026667-59.15875555zM591.95960889 534.8329244500001c-24.67612445 36.70243555-65.05813333 58.61603555-108.01720889 58.61603555-27.72764445 0-54.35392-8.96568889-77.00024889-25.92995555-29.06794667-21.72131555-48.41016889-54.02737778-54.47224889-90.97557334-6.04956445-36.88220445 1.88643555-73.98968889 22.34595556-104.48327111 24.66702222-36.70926222 65.06268445-58.62855111 108.05134222-58.62855111 3.92192 0 7.8848 0.18090667 11.78055111 0.53816889l0.53134222 0.05006222h0.79644445c1.96721778 0 3.89461333-0.12856889 5.77991111-0.36522667 19.14652445 2.89223111 36.98232889 10.13532445 52.59264 20.77582222a41.24899555 41.24899555 0 0 0 5.45905778 4.9516089c19.24664889 14.38151111 33.79313778 33.16849778 43.29585778 54.12636444 8.12373333 18.35235555 12.67484445 38.8608 12.67484444 60.50702222 0 26.67861333-6.90631111 51.63235555-18.90759111 72.94293334-1.54510222 2.6624-3.1744 5.29066667-4.91064889 7.87456z"  horiz-adv-x="1024" />

    
    <glyph glyph-name="whatsapp" unicode="&#59329;" d="M805.37687225 181.63695524000002c-12.14717273-34.37236589-60.42972502-62.84833242-98.93449223-71.1643216-26.35956225-5.54399311-60.73192814-10.03076944-176.55138507 38.00076722C399.80894539 202.35211813 219.1763465 394.32470422 219.1763465 522.08756924c0 65.01592322 37.4967682 140.76742739 103.06787794 140.76742739 31.54918134 0 38.50476722-0.60538964 48.88695754-25.5533611 12.14717273-29.3323718 41.78174766-101.60608303 45.3107281-109.01448042 14.56479577-30.39155831-14.81876353-48.18214603-36.1373483-74.69231765-6.80399212-7.96358391-14.51557702-16.58177719-5.89639936-31.39955635 8.56700578-14.51459264 38.20256409-62.7981293 81.74830978-101.55588089 56.24613619-50.14794094 101.85808303-66.12432848 118.18786022-72.92831962 12.14618836-5.03999409 26.660781-3.88040133 35.53097428 5.59419623 11.23958095 12.14717273 25.19997047 32.30714911 39.41334338 52.21414209 10.02978506 14.21337389 22.78037967 15.97638755 36.13636392 10.93639247 9.02178605-3.12440231 123.68165119-56.39674556 128.51984841-64.91453259 3.57819919-6.19860248 3.57819919-35.53195767-8.56799016-69.90432356M512.10040625 893.33333333h-0.252C233.99314128 893.33333333 8.00059555 667.2896001 8.00059555 389.33392888c0-110.22329194 35.53195767-212.43476461 95.96168367-295.3416818L41.16414992-93.39611055l193.68539663 61.89053654a500.11801875 500.11801875 0 0 1 277.2508597-83.15990157c277.85428059 0 503.89702945 226.04373323 503.89702945 503.99940446S789.95468684 893.33333333 512.10040625 893.33333333"  horiz-adv-x="1024" />

    
    <glyph glyph-name="address" unicode="&#59330;" d="M512 893.33333333c211.152375 0 382.08515625-165.90557812 382.08515625-382.08515625 0-140.76759375-180.9871875-397.16578125-296.61876563-588.20934375-30.16420313-50.274-100.54898437-50.274-135.74039062 0C336.04001563 114.08239583 129.91484375 345.34358333 129.91484375 511.24817708 129.91484375 727.42775521 300.847625 893.33333333 512 893.33333333z m0-211.152375c-80.4391875 0-140.76759375-60.32939063-140.76759375-140.76759375 0-80.4391875 60.32840625-140.76857812 140.76759375-140.76857812 75.411 0 140.76759375 60.32939063 140.76759375 140.76857812 0 80.43820313-65.35659375 140.76759375-140.76759375 140.76759375z"  horiz-adv-x="1024" />

    
    <glyph glyph-name="contact" unicode="&#59331;" d="M512 892.70760522c145.35121947 0 263.9078084-118.56930314 263.9078084-263.92167845 0-145.36508952-118.55658892-263.92167845-263.9078084-263.92167844-145.33734941 0-263.92167845 118.55658892-263.92167845 263.92167844 0 145.35237531 118.58432903 263.92167845 263.92167845 263.92167845zM967.73641933-114.87083005H56.26242484C64.64224846 100.73220741 265.45518617 273.28722398 512 273.28722398s447.37162159-172.55501658 455.73641933-388.15805403z"  horiz-adv-x="1024" />

    
    <glyph glyph-name="email1" unicode="&#59333;" d="M514.286 351.79100000000005L42.96 730.49c2.578 0.459 4.87 1.466 7.466 1.466h927.771c2.614 0 4.944-1.007 7.485-1.466L514.286 351.79100000000005z m504.013-239.722l-334.645 322.8 334.15 268.51c1.343-3.865 2.542-7.802 2.542-12.073v-569.354c0-3.458-1.128-6.602-2.047-9.883z m-1008.01-0.036c-0.794 3.248-2.083 6.388-2.083 9.918V691.306c0 4.325 1.289 8.208 2.578 12.126l334.31-268.562L10.29 112.03300000000002z m967.908-30.71H50.426c-3.601 0-6.92 1.164-10.219 2.011L377.64 408.66l123.18-98.982c3.866-3.175 8.704-4.694 13.468-4.694 4.817 0 9.603 1.519 13.466 4.694l123.356 99.035 337.398-325.379c-3.32-0.848-6.637-2.012-10.31-2.012z"  horiz-adv-x="1024" />

    
    <glyph glyph-name="fax" unicode="&#59336;" d="M222.822-20.138666660000013c0-32.563 28.468-59.392 63.488-59.392h452.404c35.02 0 63.488 26.624 63.488 59.392v48.538c0 32.563-28.468 59.392-63.488 59.392H286.31c-34.816 0-63.488-26.624-63.488-59.392v-48.538zM801.587 787.79733334c0 34.816-28.467 63.488-63.488 63.488H285.901c-35.021 0-63.488-28.467-63.488-63.488v-266.035c0-35.021 28.467-63.488 63.488-63.488h452.403c34.816 0 63.488 28.467 63.488 63.488V787.79733334z m220.365-203.776c0 46.08-38.093 83.558-84.582 83.558h-37.888c-31.744 0-58.368-18.227-58.368-63.692v-116.532c0-34.406-28.468-62.668-63.488-62.668H247.398c-34.816 0-63.488 28.262-63.488 62.668V603.47733334c0 38.093-15.564 64.307-57.753 64.307H86.63c-46.49 0-84.582-37.683-84.582-83.763v-522.854c0-46.08 38.093-83.559 84.582-83.559h59.392c27.648 0 37.479 15.565 37.479 43.008v41.165c0 34.406 28.467 62.669 63.488 62.669h529.613c35.02 0 63.488-28.263 63.488-62.669v-49.971c0-23.347 8.806-34.202 33.587-34.202h63.283c46.49 0 84.582 37.683 84.582 83.559V584.02133334z m0 0"  horiz-adv-x="1024" />

    
    <glyph glyph-name="skype" unicode="&#59337;" d="M743.408 288.576q0 28.576-11.136 52.288T704.56 380t-41.728 28-47.136 19.424-50.016 13.152l-59.424 13.728q-17.152 4-25.152 6.016t-20 6.56-17.152 9.152-9.44 12-4.288 17.152q0 44 82.272 44 24.576 0 44-6.848t30.848-16.288 21.728-19.136 22.848-16.576 27.424-6.848q26.848 0 43.136 18.272t16.288 44q0 31.424-32 56.864t-81.152 38.56-104 13.152q-38.848 0-75.424-8.864t-68.288-26.848-50.848-49.728-19.136-73.44q0-34.848 10.848-60.864t32-43.136 45.728-27.712 58.848-18.56l83.424-20.576q51.424-12.576 64-20.576 18.272-11.424 18.272-34.272 0-22.272-22.848-36.864t-60-14.56q-29.152 0-52.288 9.152t-37.152 22.016-26.016 25.728-26.272 22.016-30.848 9.152q-28.576 0-43.136-17.152T287.92 246.4q0-52.576 69.728-90.016t166.272-37.44q41.728 0 80 10.56t70.016 30.56 50.56 53.44 18.848 75.136z m207.456-124q0-90.848-64.288-155.136T731.44-54.848q-74.272 0-133.728 45.728-44-9.152-85.728-9.152-81.728 0-156.288 31.712T227.12 99.168t-85.728 128.576-31.712 156.288q0 41.728 9.152 85.728-45.728 59.424-45.728 133.728 0 90.848 64.288 155.136t155.136 64.288q74.272 0 133.728-45.728 44 9.152 85.728 9.152 81.728 0 156.288-31.712t128.576-85.728 85.728-128.576 31.712-156.288q0-41.728-9.152-85.728 45.728-59.424 45.728-133.728z"  horiz-adv-x="1024" />

    
    <glyph glyph-name="fax1" unicode="&#59338;" d="M192 773.41798941h640v-62.976H192V773.41798941z m-4.928-128h645.312v-64H187.072v64zM897.536 581.28998941V901.41798941H127.872v-320.128H0v-511.744h127.872V-122.58201058999998h769.664V69.54598940999995H1024V581.28998941H897.536z m-64.832-638.72h-640.64V69.54598940999995h640.64v-126.976z m-640.64 513.92V835.94598941h640.64v-379.52h-640.64z"  horiz-adv-x="1024" />

    
    <glyph glyph-name="qq" unicode="&#59339;" d="M105.11942188 311.79411458000004C70.77851562 223.13834896000003 64.97267188 138.61302082999998 92.72121875 122.96834894999995c19.18842187-10.922625 49.0021875 14.07065625 77.14546875 59.432625 11.11851563-49.69125 38.57175-94.26571875 77.93198437-130.2800625-41.131125-16.53159375-68.09217188-43.68951563-68.09217187-74.29078124 0-50.47875 72.71676562-91.21710938 162.45632812-91.21710938 80.9825625 0 147.99290625 33.06220313 160.48954688 76.55484375h19.1874375c12.69351562-43.49264062 79.60542188-76.55484375 160.6854375-76.55484375 89.83898437 0 162.4573125 40.737375 162.4573125 91.216125 0 30.60225-26.96203125 57.46485938-68.09217188 74.29078125 39.162375 36.01532813 66.81248438 80.58979688 77.83354688 130.28203125 28.04385938-45.36295312 57.76017187-70.25779688 77.04703125-59.33517188 27.846 15.74310937 22.23703125 100.17-12.497625 188.82773438-27.15792187 69.370875-63.86034375 120.5386875-91.90420313 132.05095312a142.66153125 142.66153125 0 0 1-18.00717187 85.31184375c0.8859375 13.28414062-1.575 26.56828125-7.08454688 38.67117188C795.192875 748.48944271 687.14984375 892.05463021 512.2953125 892.05463021S229.2993125 748.48944271 222.21476562 567.82906771a82.47782813 82.47782813 0 0 1-7.18298437-38.8670625 144.82715625 144.82715625 0 0 1-18.49935937-71.93025c0-4.52615625 0.196875-9.0523125 0.4921875-13.38257813-27.84698438-11.31539062-64.84471875-62.48320313-91.90518751-131.85407812z m-1e-8 0"  horiz-adv-x="1024" />

    
    <glyph glyph-name="tel" unicode="&#59340;" d="M60.44070092 686.69036938s79.4223173 164.42899298 213.61131422 0c133.8946688-164.59732111 0-212.85531422 0-212.85531521s-89.29166006-82.31933292-19.90799705-135.57598129c69.46733391-53.08733686 238.43331127-198.28065994 238.43331127-198.28065994s66.94733489-86.93998819 138.85099594-24.1073408c89.41766006 72.36533391 124.19365514 84.58733194 193.61964628 33.80933883 121.21099889-88.07398819 159.05332209-176.65099102-24.56999705-246.7493093-203.65731619-96.76700283-566.07362536 237.08963939-566.07362536 237.08963939S-123.18163384 473.83505417 60.44070092 686.69036938z m461.78796825-85.09231632s-66.90500677-6.88767089-54.72533686 61.06766302c5.62767089 30.91232419 59.63933588 41.07599409 109.28332899 26.33399606 49.93733686-14.44766991 235.95465502-94.24700283 243.47331028-297.5273024 0 0-13.77632616-57.03467962-57.413664-45.77933785-46.87199311 12.18065428-34.52399508 98.61565809-37.16999508 115.457328-2.35265625 16.88399803-66.77999114 147.67197933-203.44764333 140.44765317z m128.98263853 176.56731915s-81.89998917-8.31599902-66.77999114 74.54966203c6.71934277 38.00966695 72.95300578 50.39999311 133.93699692 32.6763232 60.77333588-17.85065428 288.62264813-115.54198425 297.65231902-364.2226373 0 0-19.52999705-77.61598917-69.63467766-56.44799212-43.84897847 18.81632517-46.07465034 123.77332702-48.97265034 144.4796512-3.31734375 20.74766892-78.66533292 177.91099102-246.2019968 168.96499299z"  horiz-adv-x="1025" />

    
    <glyph glyph-name="wechat" unicode="&#59341;" d="M820.82004284 560.12765601h42.27063744C827.86514909 729.21020577 644.69238685 856.02211809 433.33919966 856.02211809 200.85069372 856.02211809 10.63282525 701.02978081 10.63282525 496.72169984c0-112.72169984 63.40595617-211.3531872 169.08254976-281.8042496l-42.27063744-126.81191232 147.94723103 70.4510624c56.36084992-7.04510625 98.63148736-21.13531873 147.94723106-21.13531871h42.27063743c-7.04510625 28.18042496-14.09021248 56.36084992-14.09021248 84.54127488C461.51962461 412.18042496 616.5119619 560.12765601 820.82004284 560.12765601zM595.37664317 672.84935583c35.22553119 0 56.36084992-21.13531873 56.36084991-49.31574367 0-28.18042496-21.13531873-49.31574369-56.36084991-49.31574367s-63.40595617 21.13531873-63.40595616 49.31574367c0 28.18042496 28.18042496 49.31574369 63.40595616 49.31574367z m-302.93956833-105.67659359c-35.22553119 0-63.40595617 21.13531873-63.40595616 49.31574369 0 28.18042496 35.22553119 49.31574369 63.40595616 49.31574367 35.22553119 0 56.36084992-21.13531873 56.36084994-49.31574367 0-28.18042496-21.13531873-49.31574369-56.36084994-49.31574369z m887.68338625-331.11999329c0 154.99233728-154.99233728 281.8042496-331.11999329 281.80424962-190.21786849 0-331.11999327-126.81191232-331.11999327-281.80424962s147.94723105-281.8042496 331.11999327-281.8042496c42.27063744 0 77.49616863 7.04510625 119.76680609 21.13531873l105.67659359-56.36084992-28.18042495 98.63148736c70.4510624 56.36084992 133.85701857 133.85701857 133.85701856 218.39829343z m-443.84169313 49.31574369c-21.13531873 0-42.27063744 21.13531873-42.27063744 35.22553119 0 21.13531873 21.13531873 35.22553119 42.27063744 35.22553121 28.18042496 0 49.31574369-21.13531873 49.31574369-35.22553121s-21.13531873-35.22553119-49.31574369-35.22553119z m218.39829345 0c-21.13531873 0-42.27063744 21.13531873-42.27063744 35.22553119 0 21.13531873 21.13531873 35.22553119 42.27063744 35.22553121 28.18042496 0 49.31574369-21.13531873 49.31574368-35.22553121s-21.13531873-35.22553119-49.31574368-35.22553119z m0 0"  horiz-adv-x="1190" />

    
    <glyph glyph-name="phone" unicode="&#59343;" d="M947.993 138.24c0-163.84-76.8-163.84-435.2-163.84s-435.2 0-435.2 163.84c0 174.08 194.56 527.36 435.2 527.36 235.52 0 435.2-353.28 435.2-527.36z m-435.2 450.56c-102.4 0-184.32-81.92-184.32-179.2s81.92-184.32 184.32-184.32 184.32 81.92 184.32 184.32-81.92 179.2-184.32 179.2z m-378.88-133.12c76.8 122.88 204.8 250.88 378.88 250.88 174.08 0 317.44-143.36 378.88-250.88 35.84-56.32 97.28-46.08 122.88 0 20.48 30.72 71.68 337.92-501.76 337.92S-9.447 481.28 11.033 455.68c40.96-56.32 107.52-25.6 122.88 0z m0 0"  horiz-adv-x="1025" />

    
    <glyph glyph-name="mobile" unicode="&#59344;" d="M796.0058453 895.78500042H247.808516c-46.2335097 0-79.2574452-39.6287226-79.2574452-85.8622323v-845.41274881c0-46.2335097 33.0239355-85.8622323 79.2574452-85.8622323h548.1973293c46.2335097 0 79.2574452 39.6287226 79.2574452 85.8622323V809.92276812C875.2632905 856.15627782 842.239355 895.78500042 796.0058453 895.78500042zM518.6047871-48.699554889999945c-46.2335097 0-79.2574452 39.6287226-79.2574452 85.8622323 0 46.2335097 39.6287226 85.8622323 79.2574452 85.8622323s79.2574452-39.6287226 79.2574452-85.8622323c6.6047871-46.2335097-33.0239355-85.8622323-79.2574452-85.8622323zM776.191484 222.09671621999996c0-26.4191484-19.8143613-46.2335097-46.2335097-46.2335097H313.856387c-26.4191484 0-46.2335097 19.8143613-46.2335097 46.2335097V743.87489712c0 26.4191484 19.8143613 46.2335097 46.2335097 46.2335097h416.1015873c26.4191484 0 46.2335097-19.8143613 46.2335097-46.2335097v-521.7781809z"  horiz-adv-x="1024" />

    
    <glyph glyph-name="calendar5" unicode="&#59363;" d="M557.45 429.45h-92.89v-92.89h92.89v92.89z m0-162.557h-92.89v-92.946h92.89v92.946zM929.12 801.121h-92.946v69.61a23.28 23.28 0 1 1-46.445 0v-69.667H232.28V870.731a23.28 23.28 0 1 1-46.444 0v-69.667H92.889C41.62 801.121 0 759.446 0 708.174v-743.228C0-86.43799999999999 41.619-128 92.89-128H929.12c51.27 0 92.89 41.619 92.89 92.89V708.174c0 51.328-41.62 92.946-92.89 92.946z m46.445-836.232a46.445 46.445 0 0 0-46.445-46.388H92.89a46.445 46.445 0 0 0-46.444 46.388V522.3399999999999h929.12v-557.45z m0 603.952H46.445V708.175c0 25.664 20.78 46.501 46.444 46.501h92.947v-69.723a23.222 23.222 0 1 1 46.444 0v69.723h557.45v-69.723a23.222 23.222 0 1 1 46.445 0v69.723h92.946c25.607 0 46.445-20.837 46.445-46.501V568.8399999999999zM789.73 266.89300000000003h-92.89v-92.946h92.89v92.946z m0 162.557h-92.89v-92.89h92.89v92.89zM557.45 104.27999999999997h-92.89v-92.946h92.89V104.27999999999997z m-232.224 0h-93.003v-92.946h92.89V104.27999999999997z m0 325.17h-93.003v-92.89h92.89v92.89z m0-162.557h-93.003v-92.946h92.89v92.946z"  horiz-adv-x="1024" />

    
    <glyph glyph-name="top10" unicode="&#59373;" d="M141.56 203.65h158.76v-318.317h423.36V203.65h158.76L512 628.068zM88.64 893.333h846.72v-106.102H88.64V893.333z"  horiz-adv-x="1024" />

    


  </font>
</defs>
</svg>
